<?xml version="1.0" encoding="UTF-8"?>
<svg version="1.1" xmlns="http://www.w3.org/2000/svg" width="500" height="500">
<path d="M0 0 C0.7425 0.61875 1.485 1.2375 2.25 1.875 C2.25 2.535 2.25 3.195 2.25 3.875 C2.8378125 4.101875 3.425625 4.32875 4.03125 4.5625 C15.75079612 11.49518926 19.10083453 32.77239914 22.26953125 44.71875 C23.37650326 49.19070198 24.11430848 53.69882562 24.8125 58.25 C24.93818359 59.03632813 25.06386719 59.82265625 25.19335938 60.6328125 C25.56962645 63.04407374 25.91705372 65.45739228 26.25 67.875 C26.35078857 68.58454834 26.45157715 69.29409668 26.55541992 70.02514648 C27.64952039 79.02968145 27.44777798 88.1318712 27.4375 97.1875 C27.43709213 98.52884003 27.43709213 98.52884003 27.43667603 99.89727783 C27.41834382 112.98001674 27.16660077 125.91026057 25.25 138.875 C25.13221191 139.6803418 25.01442383 140.48568359 24.89306641 141.31542969 C23.77598423 148.75972372 22.54219354 156.18912851 20.78125 163.51171875 C20.31920364 165.56714559 19.91962166 167.63641931 19.53125 169.70703125 C19.33789062 170.73534058 19.33789062 170.73534058 19.140625 171.78442383 C18.88373019 173.15929273 18.63353216 174.5354328 18.390625 175.9128418 C18.07514857 177.5804519 17.6695208 179.23047845 17.25 180.875 C16.59 181.205 15.93 181.535 15.25 181.875 C15.65675307 187.87652646 17.41937433 191.20800425 20.9375 196 C32.25 212.13986922 32.25 212.13986922 32.25 219.875 C33.25675781 220.04515625 34.26351562 220.2153125 35.30078125 220.390625 C89.50725975 229.6697405 89.50725975 229.6697405 101.61328125 244.55078125 C104.06825801 248.78384818 104.88623716 251.87599375 104.25 256.875 C102.47637011 261.54244709 100.00490223 264.60149549 96.25 267.875 C95.59 267.875 94.93 267.875 94.25 267.875 C94.25 268.535 94.25 269.195 94.25 269.875 C80.7092851 278.40063531 64.75768854 281.76068562 49.25 284.875 C48.06156494 285.12382935 48.06156494 285.12382935 46.84912109 285.37768555 C44.1945109 285.88561725 41.55276075 286.25827509 38.87109375 286.59375 C37.36579102 286.78517578 37.36579102 286.78517578 35.83007812 286.98046875 C33.73118035 287.24397239 31.63222168 287.50699147 29.53320312 287.76953125 C28.02983398 287.96095703 28.02983398 287.96095703 26.49609375 288.15625 C25.58529053 288.27033203 24.6744873 288.38441406 23.73608398 288.50195312 C21.34891164 288.80981538 21.34891164 288.80981538 19.4649353 289.36528015 C14.29691043 290.55459022 8.88719734 290.58905658 3.60546875 290.92578125 C2.9122521 290.97027216 2.21903545 291.01476307 1.50481224 291.06060219 C-16.90066181 292.20610941 -35.30735881 292.14094372 -53.74078369 292.07061768 C-57.39560269 292.05961591 -61.05038559 292.06015462 -64.70521832 292.06075573 C-68.25251821 292.06048438 -71.79979405 292.05501448 -75.34708595 292.04775429 C-77.02597689 292.04459068 -78.70487051 292.04260566 -80.38376427 292.04186058 C-82.70470277 292.03969218 -85.02552262 292.03094746 -87.34643555 292.02026367 C-88.66000534 292.01645187 -89.97357513 292.01264008 -91.32695007 292.00871277 C-94.28220447 291.89327325 -96.87932751 291.5333499 -99.75 290.875 C-101.43000492 290.74663413 -103.11304911 290.65395526 -104.796875 290.59375 C-105.72371094 290.55636719 -106.65054688 290.51898438 -107.60546875 290.48046875 C-109.55076062 290.40958767 -111.49607361 290.33928421 -113.44140625 290.26953125 C-114.36308594 290.23214844 -115.28476563 290.19476563 -116.234375 290.15625 C-117.07709961 290.12595703 -117.91982422 290.09566406 -118.78808594 290.06445312 C-120.75 289.875 -120.75 289.875 -121.75 288.875 C-123.34982034 288.61230927 -124.95914625 288.40704755 -126.5703125 288.2265625 C-127.57296143 288.11006348 -128.57561035 287.99356445 -129.60864258 287.87353516 C-130.68654053 287.75026855 -131.76443848 287.62700195 -132.875 287.5 C-187.75700768 280.88693354 -187.75700768 280.88693354 -204.359375 263.15625 C-207.19775423 259.03476783 -207.13902562 255.04524101 -206.42578125 250.3046875 C-204.73841871 244.2379852 -200.74120914 240.48932386 -195.75 236.875 C-193.12710737 235.409543 -190.43216545 234.15728478 -187.6875 232.9375 C-186.90963135 232.59122559 -186.1317627 232.24495117 -185.33032227 231.88818359 C-176.42174048 228.08451946 -167.18598018 225.92969746 -157.75 223.875 C-156.59334839 223.60876831 -156.59334839 223.60876831 -155.41333008 223.3371582 C-150.81270503 222.28170062 -146.24504011 221.44212969 -141.5625 220.8125 C-137.27810055 220.23066798 -133.01171826 219.60576504 -128.75 218.875 C-127.624622 211.31112111 -127.98079429 204.43118027 -129 196.875 C-129.14276367 195.77124023 -129.28552734 194.66748047 -129.43261719 193.53027344 C-129.85685656 190.30961291 -130.30021948 187.09218013 -130.75 183.875 C-130.85828125 183.06998047 -130.9665625 182.26496094 -131.078125 181.43554688 C-135.77418796 147.11103406 -147.18774346 114.33098957 -161.12353516 82.76367188 C-167.16039323 68.90829788 -170.04363893 51.36015118 -165.1875 36.625 C-161.74582883 28.97818836 -155.91519199 21.39758405 -148.75 16.875 C-147.76 16.875 -146.77 16.875 -145.75 16.875 C-145.75 16.215 -145.75 15.555 -145.75 14.875 C-137.5366554 11.74610682 -127.78279142 11.3887 -119.5 14.4375 C-114.14794366 16.91514058 -109.41745405 20.29792597 -104.75 23.875 C-103.91726562 24.50664063 -103.08453125 25.13828125 -102.2265625 25.7890625 C-81.71405414 43.06615945 -72.81353866 73.5573067 -67.75 98.875 C-67.59168701 99.49656982 -67.43337402 100.11813965 -67.27026367 100.75854492 C-62.80734814 118.91387797 -60.78573607 137.96039395 -60.17895508 156.62255859 C-60.11683196 160.69714821 -60.11683196 160.69714821 -57.75 163.875 C-55.07186601 163.89707488 -55.07186601 163.89707488 -52.125 163.5 C-51.12210938 163.38914062 -50.11921875 163.27828125 -49.0859375 163.1640625 C-47.92964844 163.02097656 -47.92964844 163.02097656 -46.75 162.875 C-46.52214471 143.78579031 -47.24040286 124.80996992 -49.75 105.875 C-49.86102051 105.03582031 -49.97204102 104.19664062 -50.08642578 103.33203125 C-50.44540946 100.6576769 -50.81381823 97.98483887 -51.1875 95.3125 C-51.35258057 94.12805298 -51.35258057 94.12805298 -51.52099609 92.91967773 C-52.19261738 88.27031617 -52.98170921 83.66274901 -53.86677551 79.04884338 C-55.60804206 69.80248381 -56.4399521 60.65920488 -56.88574219 51.26660156 C-57.00261964 48.82016674 -57.13698974 46.37510227 -57.2734375 43.9296875 C-57.35515845 42.36984331 -57.43592655 40.80994883 -57.515625 39.25 C-57.57487152 38.15655273 -57.57487152 38.15655273 -57.63531494 37.04101562 C-57.7139656 35.32038277 -57.73771251 33.59738566 -57.75 31.875 C-57.42 31.545 -57.09 31.215 -56.75 30.875 C-56.33581868 28.56571567 -55.94407614 26.25239523 -55.5625 23.9375 C-53.83100562 14.61245064 -50.23313007 7.06779305 -42.6015625 1.1171875 C-29.12360716 -7.92498507 -13.98547777 -8.77390822 0 0 Z M-32.5 14.5 C-40.58376752 23.03286571 -41.3613431 34.7964625 -41.14453125 45.984375 C-40.62071243 56.87218717 -38.31518125 67.66001631 -36.37768555 78.36523438 C-34.47754068 88.99008178 -33.22709449 99.55175265 -32.37231445 110.30273438 C-32.18881188 112.6085157 -31.99832442 114.91363584 -31.80664062 117.21875 C-30.96818513 127.42998631 -30.31216058 137.64513066 -29.75 147.875 C-29.69368408 148.87128418 -29.63736816 149.86756836 -29.5793457 150.89404297 C-29.44664518 153.24175302 -29.31641373 155.58957945 -29.1875 157.9375 C-29.14431641 158.71931641 -29.10113281 159.50113281 -29.05664062 160.30664062 C-28.95415631 162.16274549 -28.85203286 164.01887027 -28.75 165.875 C-28.15832031 166.05675781 -27.56664062 166.23851562 -26.95703125 166.42578125 C-16.24787234 169.83244681 -16.24787234 169.83244681 -13.375 173.75 C-12.55750627 176.52947868 -12.83746546 178.13739639 -13.75 180.875 C-15.31978161 182.85738281 -16.18023123 183.7685974 -18.6953125 184.23828125 C-19.77425781 184.21314453 -19.77425781 184.21314453 -20.875 184.1875 C-21.57882812 184.18363281 -22.28265625 184.17976562 -23.0078125 184.17578125 C-25.36397832 183.91734141 -27.38930437 183.45991529 -29.671875 182.8671875 C-36.0251775 181.40200062 -42.38835843 181.62283778 -48.875 181.6875 C-50.72931641 181.6884668 -50.72931641 181.6884668 -52.62109375 181.68945312 C-59.80753974 181.69271147 -59.80753974 181.69271147 -66.9375 182.46875 C-69.75 182.875 -69.75 182.875 -72.625 181.5625 C-74.75 179.875 -74.75 179.875 -75.75 177.875 C-75.86748627 176.4640735 -75.92885524 175.04825848 -75.9609375 173.6328125 C-76.00021362 172.30262085 -76.00021362 172.30262085 -76.0402832 170.94555664 C-76.06823975 169.97352295 -76.09619629 169.00148926 -76.125 168 C-77.16321885 139.95030568 -80.5594943 111.77084981 -88.75 84.875 C-89.0284375 83.86953125 -89.306875 82.8640625 -89.59375 81.828125 C-89.8309375 80.97734375 -90.068125 80.1265625 -90.3125 79.25 C-90.49941406 78.57710938 -90.68632812 77.90421875 -90.87890625 77.2109375 C-91.94411752 74.35445166 -93.2964952 71.70264089 -94.68188477 68.98925781 C-95.68566644 67.00234369 -96.63746393 64.9996674 -97.57421875 62.98046875 C-103.59756838 50.20035228 -111.31004401 37.51026883 -124.625 31.4375 C-129.58122507 29.66527406 -133.73233182 29.03398505 -138.75 30.875 C-144.03895662 34.09275682 -147.39326302 37.88336694 -149.27734375 43.78515625 C-153.80499214 63.80409749 -142.96133719 83.06431076 -135.3840332 101.02758789 C-123.10854444 130.3679105 -116.21996335 161.33106904 -112.75 192.875 C-112.65686523 193.70805664 -112.56373047 194.54111328 -112.46777344 195.39941406 C-109.68783602 221.17273217 -109.83969246 247.12397521 -112.75 272.875 C-107.84945168 273.80213076 -103.03215082 274.18745468 -98.0625 274.4375 C-97.24177002 274.48068359 -96.42104004 274.52386719 -95.57543945 274.56835938 C-88.73728189 274.89606037 -81.91417313 274.9446956 -75.06958008 274.83813477 C-71.92649453 274.80225089 -69.03807594 274.82465663 -65.93359375 275.3671875 C-61.00993713 276.15255604 -56.10234561 276.02144747 -51.125 276 C-50.04702148 275.99806641 -48.96904297 275.99613281 -47.85839844 275.99414062 C-41.63252876 275.96021218 -35.49635257 275.73930881 -29.30078125 275.09375 C-26.57918302 274.86035107 -23.9185911 274.84511118 -21.1875 274.875 C-15.7973864 274.92477677 -10.44355903 274.71760563 -5.0625 274.4375 C-4.27866943 274.39818359 -3.49483887 274.35886719 -2.68725586 274.31835938 C1.97517367 274.0636621 6.59299638 273.64515415 11.23022461 273.1003418 C14.53828582 272.73126885 17.8614175 272.54912541 21.18359375 272.3515625 C23.63950094 272.03403802 23.63950094 272.03403802 25.25 268.875 C28.12229377 246.7173052 17.6589673 222.06856745 6.51171875 203.5 C6.09535156 202.96375 5.67898438 202.4275 5.25 201.875 C4.59 201.875 3.93 201.875 3.25 201.875 C3.0025 201.33875 2.755 200.8025 2.5 200.25 C1.24043148 197.69817537 1.24043148 197.69817537 -0.9375 195 C-3.4886452 190.60147379 -2.22807764 187.82354133 -1.05737305 183.05200195 C-0.66352417 181.59733521 -0.66352417 181.59733521 -0.26171875 180.11328125 C2.94415962 167.99188162 5.80481608 155.97878615 7.625 143.5625 C7.8576355 141.98432495 7.8576355 141.98432495 8.0949707 140.37426758 C9.87539292 127.44059078 10.41996488 114.50680105 10.38037109 101.46826172 C10.37500232 99.37590294 10.38036496 97.28375869 10.38671875 95.19140625 C10.39576997 77.76437467 9.10786319 60.97158167 4.375 44.125 C4.13048096 43.24956543 3.88596191 42.37413086 3.6340332 41.47216797 C1.47375244 34.04844072 -1.25570471 26.89008442 -5.375 20.3125 C-5.77976562 19.65121094 -6.18453125 18.98992187 -6.6015625 18.30859375 C-6.98054687 17.83550781 -7.35953125 17.36242187 -7.75 16.875 C-8.41 16.875 -9.07 16.875 -9.75 16.875 C-10.08 15.885 -10.41 14.895 -10.75 13.875 C-12.77738307 12.84985126 -12.77738307 12.84985126 -15.1875 12.1875 C-15.99058594 11.93613281 -16.79367187 11.68476562 -17.62109375 11.42578125 C-22.78329177 10.09024011 -28.04200285 11.86572896 -32.5 14.5 Z " fill="#251D2C" transform="translate(305.75,93.125)"/>
<path d="M0 0 C3.50806611 2.25045751 5.50734274 4.01468548 7.375 7.75 C8.53246514 13.76881873 8.8813752 19.41733555 6 25 C5.34 25 4.68 25 4 25 C4 25.66 4 26.32 4 27 C1.32207206 28.820991 -0.1404918 28.9974456 -3.4375 28.9375 C-7.97624834 27.74309254 -9.36177039 26.91965542 -12 23 C-13.64660619 17.27071271 -15.05521574 11.34643094 -12.625 5.6875 C-11.820625 4.3571875 -11.820625 4.3571875 -11 3 C-10.34 3 -9.68 3 -9 3 C-9 2.34 -9 1.68 -9 1 C-5.85088521 -0.57455739 -3.47991184 -0.34799118 0 0 Z " fill="#271F2F" transform="translate(300,312)"/>
<path d="M0 0 C4.05506584 2.15694992 6.96909765 4.19886393 8.76171875 8.57421875 C10.30386899 14.20257598 10.04491093 19.11380542 7.9375 24.5625 C5.75102379 27.80172401 4.33340332 28.42804227 0.625 29.6875 C-3.91528899 29.5335919 -5.45388487 28.32993792 -8.6171875 25.23046875 C-12.17936692 21.11952115 -12.45723001 17.0369096 -12.30859375 11.7734375 C-11.76453164 6.88551444 -9.85854765 4.27009792 -6.25 1.0625 C-3.0625 -0.4375 -3.0625 -0.4375 0 0 Z " fill="#231C2B" transform="translate(235.0625,315.4375)"/>
<path d="M0 0 C5.67276511 -0.29341888 8.99067246 -0.00559652 14 3 C14 3.66 14 4.32 14 5 C14.66 5 15.32 5 16 5 C16.42455919 9.33050371 16.53642731 11.31030775 13.8125 14.8125 C8.8807916 18.6482732 5.25178371 19.44655598 -1 19 C-3.95652905 18.1936739 -5.57591006 17.39484236 -7.8125 15.3125 C-9.55370717 11.92172814 -9.59312025 9.75642826 -9 6 C-7.1775661 3.656052 -5.58753735 2.62355285 -3 1 C-2.01 1.33 -1.02 1.66 0 2 C0 1.34 0 0.68 0 0 Z " fill="#292331" transform="translate(266,341)"/>
<path d="M0 0 C0.66 0 1.32 0 2 0 C2.33 1.32 2.66 2.64 3 4 C3.94875 4.061875 4.8975 4.12375 5.875 4.1875 C6.90625 4.455625 7.9375 4.72375 9 5 C10.375 7.5625 10.375 7.5625 11 10 C4.375 11.25 4.375 11.25 1 9 C1.33 8.01 1.66 7.02 2 6 C0.68 5.34 -0.64 4.68 -2 4 C-1.34 2.68 -0.68 1.36 0 0 Z " fill="#211C27" transform="translate(228,334)"/>
<path d="M0 0 C-0.99 1.32 -1.98 2.64 -3 4 C-2.34 4.33 -1.68 4.66 -1 5 C-2.485 7.475 -2.485 7.475 -4 10 C-4.33 9.34 -4.66 8.68 -5 8 C-5.99 7.67 -6.98 7.34 -8 7 C-8.125 4.625 -8.125 4.625 -8 2 C-5.44123378 -0.55876622 -3.37797483 -1.68898741 0 0 Z " fill="#24202A" transform="translate(265,345)"/>
<path d="M0 0 C2 3 2 3 1.8984375 5.15625 C0.47239955 11.54149456 0.47239955 11.54149456 -2.125 14.0625 C-2.74375 14.371875 -3.3625 14.68125 -4 15 C-4.66 13.68 -5.32 12.36 -6 11 C-6.99 11.33 -7.98 11.66 -9 12 C-9 11.34 -9 10.68 -9 10 C-7.88625 9.649375 -6.7725 9.29875 -5.625 8.9375 C-3.66818521 8.19669368 -3.66818521 8.19669368 -2 7 C-0.46954015 3.44107712 -0.46954015 3.44107712 0 0 Z " fill="#332F3A" transform="translate(243,328)"/>
<path d="M0 0 C-0.66 1.98 -1.32 3.96 -2 6 C-4.8125 6.625 -4.8125 6.625 -8 7 C-8.99 6.34 -9.98 5.68 -11 5 C-10.67 4.34 -10.34 3.68 -10 3 C-9.34 3 -8.68 3 -8 3 C-8 2.34 -8 1.68 -8 1 C-5.29120665 -0.35439668 -2.99066732 -0.06501451 0 0 Z " fill="#3C3944" transform="translate(299,312)"/>
<path d="M0 0 C1.1446875 0.495 1.1446875 0.495 2.3125 1 C4.99069135 2.17436686 4.99069135 2.17436686 8 2 C9 5 9 5 9 7 C10.98 7 12.96 7 15 7 C15 7.33 15 7.66 15 8 C10.4990948 8.17650609 6.98970779 8.21650433 3 6 C0 2.68965517 0 2.68965517 0 0 Z " fill="#524D56" transform="translate(257,352)"/>
<path d="M0 0 C-0.598125 0.28875 -1.19625 0.5775 -1.8125 0.875 C-4.19327792 2.04742026 -4.19327792 2.04742026 -7 4 C-6.67 4.66 -6.34 5.32 -6 6 C-6.969375 6.12375 -7.93875 6.2475 -8.9375 6.375 C-10.4534375 6.684375 -10.4534375 6.684375 -12 7 C-12.33 7.66 -12.66 8.32 -13 9 C-12.70179167 5.42150008 -12.25754642 4.23773516 -9.5625 1.75 C-5.70832803 -0.88211744 -4.51121076 -1.06844465 0 0 Z " fill="#46414D" transform="translate(237,316)"/>
<path d="M0 0 C1.66666667 1.66666667 3.33333333 3.33333333 5 5 C5.99 5.66 6.98 6.32 8 7 C6.265625 7.68359375 6.265625 7.68359375 4 8 C1.859375 6.78515625 1.859375 6.78515625 -0.25 5.0625 C-0.95640625 4.49660156 -1.6628125 3.93070312 -2.390625 3.34765625 C-2.92171875 2.90292969 -3.4528125 2.45820313 -4 2 C-2.68 1.34 -1.36 0.68 0 0 Z " fill="#403D47" transform="translate(107,356)"/>
<path d="M0 0 C0.12375 0.639375 0.2475 1.27875 0.375 1.9375 C0.684375 2.9584375 0.684375 2.9584375 1 4 C1.66 4.33 2.32 4.66 3 5 C2.34 6.32 1.68 7.64 1 9 C1 7.68 1 6.36 1 5 C0.01 5.99 -0.98 6.98 -2 8 C-3.32 7.34 -4.64 6.68 -6 6 C-5.195625 5.38125 -4.39125 4.7625 -3.5625 4.125 C-0.96125481 2.25835959 -0.96125481 2.25835959 0 0 Z " fill="#17121D" transform="translate(190,271)"/>
<path d="M0 0 C2.97 0.495 2.97 0.495 6 1 C6 1.99 6 2.98 6 4 C5.34 4 4.68 4 4 4 C4 4.66 4 5.32 4 6 C2.35 5.67 0.7 5.34 -1 5 C-0.67 3.35 -0.34 1.7 0 0 Z " fill="#191421" transform="translate(313,110)"/>
<path d="M0 0 C2.97 1.65 5.94 3.3 9 5 C8.67 5.66 8.34 6.32 8 7 C7.34 7 6.68 7 6 7 C6 6.34 6 5.68 6 5 C5.236875 5.226875 4.47375 5.45375 3.6875 5.6875 C2.800625 5.790625 1.91375 5.89375 1 6 C-0.8125 4.5625 -0.8125 4.5625 -2 3 C-1.34 3 -0.68 3 0 3 C0 2.01 0 1.02 0 0 Z " fill="#46424A" transform="translate(299,90)"/>
<path d="M0 0 C0.33 0 0.66 0 1 0 C1 2.31 1 4.62 1 7 C1.66 7.33 2.32 7.66 3 8 C3 10.31 3 12.62 3 15 C0.9375 13.125 0.9375 13.125 -1 10 C-1.0571754 6.59546453 -0.59785505 3.34668858 0 0 Z " fill="#4A484F" transform="translate(100,341)"/>
<path d="M0 0 C0.33 0 0.66 0 1 0 C1 1.65 1 3.3 1 5 C2.32 5.66 3.64 6.32 5 7 C4.01 8.98 3.02 10.96 2 13 C-0.1229936 9.46167734 -0.62231907 6.078954 -1 2 C-0.67 1.34 -0.34 0.68 0 0 Z " fill="#3F3C44" transform="translate(169,238)"/>
<path d="M0 0 C0.99 0.33 1.98 0.66 3 1 C2.34 2.32 1.68 3.64 1 5 C3.475 5.99 3.475 5.99 6 7 C5.01 7.66 4.02 8.32 3 9 C0.9375 6.75 0.9375 6.75 -1 4 C-0.75 1.6875 -0.75 1.6875 0 0 Z " fill="#3E3643" transform="translate(225,333)"/>
<path d="M0 0 C0.33 0 0.66 0 1 0 C1 1.65 1 3.3 1 5 C1.66 5 2.32 5 3 5 C2.34 6.65 1.68 8.3 1 10 C0.34 9.67 -0.32 9.34 -1 9 C-1.09765625 2.84765625 -1.09765625 2.84765625 -1 1 C-0.67 0.67 -0.34 0.34 0 0 Z " fill="#16141E" transform="translate(260,230)"/>
<path d="M0 0 C5.23175837 -0.38281159 8.37802694 0.78145293 13 3 C12.01 3.66 11.02 4.32 10 5 C10 4.34 10 3.68 10 3 C7.69 3 5.38 3 3 3 C3 2.34 3 1.68 3 1 C2.01 0.67 1.02 0.34 0 0 Z " fill="#4C4853" transform="translate(377,323)"/>
<path d="M0 0 C0.66 0.33 1.32 0.66 2 1 C1.67 2.98 1.34 4.96 1 7 C0.01 7 -0.98 7 -2 7 C-2.33 5.35 -2.66 3.7 -3 2 C-2.01 2 -1.02 2 0 2 C0 1.34 0 0.68 0 0 Z " fill="#312837" transform="translate(253,153)"/>
<path d="M0 0 C1.175625 0.5259375 1.175625 0.5259375 2.375 1.0625 C3.674375 1.5265625 3.674375 1.5265625 5 2 C5.66 1.67 6.32 1.34 7 1 C7.33 2.65 7.66 4.3 8 6 C5.6875 5.8125 5.6875 5.8125 3 5 C1.1875 2.4375 1.1875 2.4375 0 0 Z " fill="#4E3F55" transform="translate(195,135)"/>
<path d="M0 0 C2 3.75 2 3.75 2 6 C1.34 6 0.68 6 0 6 C0 8.64 0 11.28 0 14 C-0.33 14 -0.66 14 -1 14 C-1.02685938 11.85423363 -1.04633088 9.70837355 -1.0625 7.5625 C-1.07410156 6.36753906 -1.08570313 5.17257813 -1.09765625 3.94140625 C-1 1 -1 1 0 0 Z " fill="#635E6C" transform="translate(316,162)"/>
<path d="M0 0 C2 2 2 2 2.3125 4.875 C1.96732652 8.32673483 1.14126508 9.38980351 -1 12 C-1.02687279 10.18757948 -1.04633715 8.37504767 -1.0625 6.5625 C-1.07410156 5.55316406 -1.08570313 4.54382813 -1.09765625 3.50390625 C-1 1 -1 1 0 0 Z " fill="#18141F" transform="translate(179,288)"/>
<path d="M0 0 C0.33 0.99 0.66 1.98 1 3 C-2.34373475 2.44271087 -5.03312999 1.64826111 -8 0 C-4.99727245 -0.96516243 -2.95784231 -1.22393475 0 0 Z " fill="#120D18" transform="translate(209,381)"/>
<path d="M0 0 C0.99 0 1.98 0 3 0 C2.30058404 3.14737182 1.23921302 6.02588876 0 9 C-0.33 9 -0.66 9 -1 9 C-1.09765625 2.84765625 -1.09765625 2.84765625 -1 1 C-0.67 0.67 -0.34 0.34 0 0 Z " fill="#49444F" transform="translate(331,341)"/>
<path d="M0 0 C1.98 0 3.96 0 6 0 C1.375 4 1.375 4 -2 4 C-1.34 2.68 -0.68 1.36 0 0 Z " fill="#5D5A62" transform="translate(394,362)"/>
<path d="M0 0 C0.33 0.66 0.66 1.32 1 2 C3.01669827 3.13350534 3.01669827 3.13350534 5 4 C2.53721199 5.231394 0.7204945 5.07159196 -2 5 C-1.125 1.125 -1.125 1.125 0 0 Z " fill="#191420" transform="translate(331,337)"/>
<path d="M0 0 C2 1.375 2 1.375 4 3 C4 3.66 4 4.32 4 5 C1.69 5 -0.62 5 -3 5 C-2.01 3.35 -1.02 1.7 0 0 Z " fill="#332F3A" transform="translate(285,273)"/>
<path d="M0 0 C1.9375 0.8125 1.9375 0.8125 4 2 C4.33 2.99 4.66 3.98 5 5 C3.35 5.33 1.7 5.66 0 6 C0 4.02 0 2.04 0 0 Z " fill="#181320" transform="translate(226,214)"/>
<path d="M0 0 C0.33 0.66 0.66 1.32 1 2 C1.66 2.33 2.32 2.66 3 3 C2.34 3 1.68 3 1 3 C1 3.66 1 4.32 1 5 C-1.475 4.01 -1.475 4.01 -4 3 C-3 1 -3 1 0 0 Z " fill="#1B1421" transform="translate(275,353)"/>
<path d="M0 0 C0 0.66 0 1.32 0 2 C-2.97 1.67 -5.94 1.34 -9 1 C-4.82091936 -1.08954032 -4.19589427 -1.16552619 0 0 Z " fill="#4F4953" transform="translate(280,275)"/>
</svg>
